# xmcd
#
# Track frame offsets: 
#        150
#        10235
#        19619
#        31753
#        41265
#        50591
#        57958
#        69312
#        76644
#        86145
#        97826
#        107291
#        117841
#
# Disc length: 1721 seconds
#
# Revision: 2
# Processed by: cddbd v1.5.2PL0 Copyright (c) Steve Scherf et al.
# Submitted via: ExactAudioCopyFreeDBPlugin 1.0
#
DISCID=8806b70d
DTITLE=Chris Cook - Chris Cook 1990
DYEAR=1990
DGENRE=Country
TTITLE0=If We Were Kids Today
TTITLE1=Second Fiddle
TTITLE2=On A Good Wicket
TTITLE3=The Bushman
TTITLE4=Another Town
TTITLE5=Broken Hearted Fool
TTITLE6=It's Never The Same
TTITLE7=The Only Thing Blue
TTITLE8=Charlie
TTITLE9=Are There Honky-Tonks In Heaven
TTITLE10=Man From The Never Never
TTITLE11=The Pubs Still Make A Quid
TTITLE12=No Place Like Home
EXTD=
EXTT0=
EXTT1=
EXTT2=
EXTT3=
EXTT4=
EXTT5=
EXTT6=
EXTT7=
EXTT8=
EXTT9=
EXTT10=
EXTT11=
EXTT12=
PLAYORDER=
